<?xml version="1.0" standalone="no"?>
<!DOCTYPE svg PUBLIC "-//W3C//DTD SVG 20010904//EN"
 "http://www.w3.org/TR/2001/REC-SVG-20010904/DTD/svg10.dtd">
<svg version="1.0" xmlns="http://www.w3.org/2000/svg"
 width="684.000000pt" height="684.000000pt" viewBox="0 0 684.000000 684.000000"
 preserveAspectRatio="xMidYMid meet">
<metadata>
Created by potrace 1.14, written by Peter Selinger 2001-2017
</metadata>
<g transform="translate(0.000000,684.000000) scale(0.100000,-0.100000)"
fill="#000000" stroke="none">
<path d="M5677 5792 c-34 -7 -80 -15 -101 -18 -22 -3 -47 -9 -55 -13 -9 -5
-35 -11 -59 -15 -24 -3 -47 -8 -51 -10 -4 -3 -30 -8 -57 -12 -27 -3 -52 -8
-56 -11 -10 -6 -45 -13 -83 -17 -16 -2 -50 -9 -75 -16 -46 -13 -51 -15 -107
-23 -18 -3 -40 -8 -50 -11 -23 -7 -69 -16 -108 -22 -16 -2 -39 -7 -50 -11 -11
-4 -27 -8 -35 -9 -27 -4 -74 -15 -93 -20 -10 -3 -34 -8 -54 -10 -20 -3 -39 -7
-43 -9 -4 -3 -29 -7 -56 -10 -26 -4 -52 -9 -57 -12 -6 -3 -20 -7 -31 -9 -39
-6 -75 -14 -102 -24 -14 -6 -29 -8 -34 -5 -5 3 -20 1 -34 -5 -15 -5 -38 -12
-51 -15 -14 -3 -37 -7 -52 -11 -15 -3 -30 -7 -33 -9 -4 -2 -30 -7 -59 -10 -29
-3 -64 -10 -77 -15 -14 -6 -28 -9 -32 -8 -4 1 -20 -1 -37 -5 -75 -18 -89 -21
-155 -31 -19 -3 -60 -12 -90 -21 -30 -8 -71 -17 -90 -20 -19 -3 -46 -8 -60
-11 -14 -3 -34 -7 -45 -9 -11 -2 -35 -8 -54 -14 -18 -6 -36 -10 -40 -9 -3 1
-24 -4 -46 -10 -22 -6 -60 -14 -85 -17 -24 -4 -47 -8 -51 -10 -3 -2 -21 -7
-40 -10 -19 -3 -47 -8 -64 -12 -16 -3 -39 -7 -50 -9 -25 -4 -62 -12 -83 -18
-9 -3 -32 -8 -51 -11 -19 -3 -37 -7 -40 -9 -3 -2 -24 -7 -46 -10 -22 -4 -48
-9 -57 -12 -22 -6 -58 -15 -83 -18 -11 -2 -22 -4 -25 -5 -3 0 155 -161 350
-356 l355 -355 -885 -885 -884 -884 -12 28 c-6 15 -24 37 -39 49 -46 36 -85
24 -173 -57 -146 -132 -691 -686 -701 -713 -25 -65 14 -135 79 -139 33 -2 45
8 209 174 96 97 179 174 184 170 11 -7 108 87 101 99 -3 5 6 20 20 33 14 13
26 19 28 14 2 -6 19 6 38 26 18 19 28 35 21 35 -7 0 -9 5 -6 10 3 6 15 10 25
10 12 0 17 5 14 13 -2 7 11 28 31 47 19 19 36 32 36 29 5 -17 5 -48 0 -45 -3
2 -12 -2 -19 -10 -11 -12 -10 -14 5 -15 10 0 13 -3 6 -5 -8 -4 -5 -12 9 -26
17 -17 20 -30 16 -84 l-4 -65 -92 -92 c-95 -95 -119 -138 -103 -181 10 -25 36
-49 60 -54 77 -16 40 -47 536 446 626 623 785 778 785 767 0 -6 306 296 679
669 374 374 679 684 678 690 -1 6 4 10 11 11 6 0 11 5 10 10 -3 12 -87 12
-213 1 -49 -4 -117 -9 -150 -12 l-60 -4 -265 266 -265 266 90 -6 c50 -3 104
-8 120 -11 17 -3 48 -7 70 -9 22 -3 56 -8 75 -11 19 -3 55 -8 80 -10 25 -2 72
-8 105 -13 63 -10 124 -8 178 4 31 7 48 10 100 17 13 2 29 7 34 10 6 4 33 9
59 11 27 2 56 7 64 10 8 3 29 8 45 10 26 4 58 11 90 20 38 11 65 16 101 20 23
2 51 9 61 15 11 6 22 8 25 6 2 -3 20 0 39 6 19 5 48 12 64 14 17 3 41 8 55 11
14 3 43 9 65 13 23 4 46 11 53 15 7 4 29 10 50 12 20 3 44 7 52 9 8 3 35 7 59
10 24 3 47 8 51 10 4 2 26 7 50 10 23 3 46 7 50 10 5 3 30 7 57 10 26 2 63 9
81 14 17 5 32 8 32 5 0 -2 12 2 28 9 45 22 73 5 62 -38 -1 -5 -3 -26 -5 -46
-1 -19 -4 -39 -7 -45 -3 -5 -9 -26 -12 -48 -4 -21 -8 -41 -10 -45 -2 -3 -7
-24 -10 -46 -3 -22 -9 -53 -13 -70 -3 -16 -7 -37 -8 -45 -1 -8 -7 -33 -13 -55
-6 -22 -13 -56 -16 -75 -9 -55 -16 -94 -22 -112 -3 -9 -7 -27 -9 -40 -3 -13
-8 -36 -12 -53 -9 -39 -8 -33 -17 -88 -4 -27 -10 -59 -12 -70 -3 -12 -7 -33
-10 -47 -2 -14 -7 -36 -10 -50 -3 -14 -6 -26 -5 -27 0 -2 -5 -17 -10 -35 -5
-18 -12 -49 -15 -68 -2 -19 -7 -46 -11 -60 -5 -22 -7 -36 -17 -90 -1 -8 -5
-24 -9 -35 -6 -19 -10 -39 -21 -120 -3 -16 -7 -43 -11 -60 -8 -36 -8 -67 -2
-120 3 -22 8 -71 11 -110 11 -114 16 -157 21 -179 11 -47 16 -85 21 -150 3
-39 7 -73 10 -78 3 -4 2 -18 -1 -29 -6 -19 -17 -11 -101 72 -52 52 -94 98 -94
104 0 13 -122 135 -135 135 -6 0 -50 39 -98 88 l-87 87 6 80 c3 44 8 98 10
120 14 123 16 247 5 240 -7 -4 -10 -9 -7 -12 3 -3 1 -14 -5 -25 -6 -11 -12
-27 -14 -36 -2 -9 -15 -48 -29 -87 -14 -38 -26 -72 -26 -75 0 -12 -14 -49 -35
-95 -19 -41 -152 -178 -715 -740 -387 -387 -697 -704 -704 -721 -8 -17 -12
-43 -9 -58 7 -35 63 -84 94 -80 13 1 28 3 34 3 5 1 301 292 657 648 l648 648
359 -359 c340 -340 359 -358 371 -337 6 13 10 25 7 27 -2 3 2 30 10 62 8 31
15 66 17 77 3 21 22 111 32 155 3 14 7 32 8 40 1 8 6 25 10 36 3 12 9 35 11
50 4 31 10 60 22 109 4 17 6 33 5 37 -1 4 3 20 9 35 6 15 12 44 14 64 2 20 5
45 9 55 5 19 14 60 20 99 2 11 6 27 10 35 3 8 8 29 10 45 3 17 7 41 10 55 3
14 8 41 11 61 2 20 9 49 15 64 6 15 8 30 6 33 -3 2 -1 13 5 24 6 11 13 34 15
51 9 66 14 89 30 150 3 12 7 29 8 37 2 8 6 26 9 40 4 14 9 37 12 53 11 58 16
83 21 100 3 10 7 31 9 48 3 17 7 39 10 49 3 10 8 35 11 56 2 22 7 47 10 56 6
19 14 55 18 83 2 11 6 27 10 35 3 8 8 29 10 45 3 17 7 41 10 55 4 14 8 39 10
57 3 18 7 40 10 50 3 10 8 32 11 48 4 17 9 41 12 55 3 14 6 39 8 56 1 17 8 40
14 51 5 11 8 23 5 25 -2 3 0 18 6 33 6 15 12 42 15 59 2 17 11 62 20 101 9 38
18 81 20 95 5 31 13 66 19 88 3 9 8 35 12 57 3 22 12 69 21 105 8 36 16 76 18
90 3 14 7 40 10 57 6 31 4 33 -20 31 -14 -1 -54 -8 -88 -16z"/>
<path d="M2434 2329 c-329 -328 -600 -603 -602 -610 -3 -8 18 8 45 34 28 27
57 49 66 51 8 1 22 8 31 15 14 12 15 8 11 -35 -12 -115 -6 -107 -181 -283 -90
-91 -164 -170 -164 -176 0 -7 10 -21 23 -32 28 -26 52 -40 43 -25 -3 6 6 13
24 17 17 4 28 10 26 14 -6 10 114 129 145 145 13 6 24 17 24 23 0 15 166 183
181 183 5 0 23 14 39 30 16 17 25 30 19 30 -5 0 126 135 291 300 165 165 304
300 310 300 16 0 277 265 269 273 -4 4 0 7 8 7 17 0 28 40 28 103 0 34 7 48
45 88 52 56 57 88 20 125 -19 19 -34 24 -64 23 -38 -3 -64 -27 -637 -600z"/>
<path d="M2476 2788 c-16 -23 -7 -57 17 -60 36 -4 43 -3 55 5 15 12 16 49 0
65 -19 19 -55 14 -72 -10z"/>
<path d="M1745 2123 c-319 -323 -581 -590 -581 -595 -1 -4 -3 -9 -4 -10 -7 -7
-7 -54 0 -63 5 -5 9 -14 9 -20 1 -5 4 -10 9 -11 4 0 15 -4 25 -8 17 -8 22 -7
66 19 14 7 282 271 596 585 554 554 571 572 567 605 -5 40 -39 75 -78 80 -26
3 -82 -51 -609 -582z"/>
<path d="M1430 2419 c0 -5 5 -7 10 -4 6 3 10 8 10 11 0 2 -4 4 -10 4 -5 0 -10
-5 -10 -11z"/>
<path d="M1400 2389 c0 -5 5 -7 10 -4 6 3 10 8 10 11 0 2 -4 4 -10 4 -5 0 -10
-5 -10 -11z"/>
<path d="M2737 2001 c-21 -10 -62 -41 -92 -71 -29 -29 -58 -50 -63 -46 -19 11
-77 -23 -129 -76 -29 -29 -53 -57 -53 -63 0 -5 -69 -80 -153 -165 -249 -253
-270 -277 -258 -299 6 -10 17 -21 24 -24 9 -3 100 80 248 229 129 129 244 237
257 239 12 3 34 7 48 10 25 6 25 5 19 -37 -3 -24 -8 -58 -10 -77 -3 -30 -52
-83 -375 -406 -219 -220 -370 -379 -371 -390 -4 -68 27 -106 93 -111 l43 -3
391 392 c215 216 392 399 392 407 0 8 3 49 7 90 7 80 12 134 14 163 0 10 21
39 45 65 25 27 50 60 55 75 16 40 -4 86 -45 103 -41 17 -41 17 -87 -5z"/>
<path d="M1033 1749 c-37 -39 -69 -74 -71 -78 -1 -4 11 -20 28 -36 l31 -29 69
70 c73 72 89 104 63 125 -32 27 -51 19 -120 -52z"/>
<path d="M1695 1060 c-27 -28 -56 -50 -64 -50 -10 0 1 -16 27 -42 l42 -42 50
49 c53 52 62 82 33 107 -34 28 -40 27 -88 -22z"/>
</g>
</svg>
