<?xml version="1.0" standalone="no"?>
<!DOCTYPE svg PUBLIC "-//W3C//DTD SVG 20010904//EN"
 "http://www.w3.org/TR/2001/REC-SVG-20010904/DTD/svg10.dtd">
<svg version="1.0" xmlns="http://www.w3.org/2000/svg"
 width="884.000000pt" height="884.000000pt" viewBox="0 0 884.000000 884.000000"
 preserveAspectRatio="xMidYMid meet">
<metadata>
Created by potrace 1.14, written by Peter Selinger 2001-2017
</metadata>
<g transform="translate(0.000000,884.000000) scale(0.100000,-0.100000)"
fill="#000000" stroke="none">
<path d="M4130 8410 c-1251 -104 -2349 -746 -3035 -1775 -363 -545 -568 -1108
-651 -1785 -25 -203 -25 -667 0 -870 38 -312 92 -557 181 -825 282 -849 836
-1574 1580 -2070 545 -363 1108 -568 1785 -651 203 -25 667 -25 870 0 312 38
557 92 825 181 849 282 1574 836 2070 1580 363 545 568 1108 651 1785 25 203
25 667 0 870 -38 312 -92 557 -181 825 -282 849 -836 1574 -1580 2070 -543
362 -1114 570 -1780 651 -153 18 -584 26 -735 14z m561 -451 c746 -58 1462
-349 2024 -823 95 -80 320 -303 404 -401 673 -781 975 -1828 821 -2848 -101
-664 -387 -1288 -821 -1792 -84 -98 -309 -321 -404 -401 -562 -474 -1278 -765
-2024 -823 -913 -72 -1854 231 -2556 823 -95 80 -320 303 -404 401 -1082 1255
-1149 3100 -163 4435 118 159 218 273 374 425 157 154 213 203 368 317 686
507 1539 753 2381 687z"/>
<path d="M6528 6595 c-2 -2 -19 -5 -38 -8 -53 -8 -140 -25 -182 -36 -21 -5
-38 -7 -38 -5 0 3 -8 0 -18 -5 -11 -6 -41 -13 -68 -17 -27 -3 -53 -9 -59 -12
-11 -7 -25 -10 -75 -17 -43 -6 -61 -10 -81 -19 -9 -4 -20 -6 -25 -5 -5 1 -12
0 -16 -1 -12 -4 -20 -5 -73 -15 -27 -4 -57 -10 -65 -12 -8 -2 -25 -6 -37 -8
-11 -1 -32 -7 -45 -11 -12 -4 -30 -9 -38 -10 -8 -1 -28 -6 -45 -10 -16 -4 -38
-7 -47 -8 -10 0 -18 -3 -18 -6 0 -4 -33 -10 -82 -13 -10 -1 -18 -4 -18 -7 0
-3 -12 -6 -27 -7 -56 -4 -83 -8 -83 -13 0 -3 -14 -7 -31 -8 -17 -1 -40 -7 -50
-13 -11 -5 -24 -7 -29 -4 -5 3 -18 1 -28 -4 -11 -6 -32 -13 -48 -16 -16 -3
-40 -9 -54 -12 -14 -3 -33 -6 -42 -7 -10 0 -18 -3 -18 -6 0 -3 -12 -5 -27 -5
-16 1 -43 -4 -60 -11 -22 -9 -33 -9 -33 -2 0 7 -4 7 -13 0 -6 -6 -26 -12 -42
-15 -17 -2 -37 -7 -45 -10 -8 -3 -35 -8 -60 -11 -25 -3 -70 -12 -100 -21 -30
-9 -68 -18 -85 -20 -16 -1 -32 -4 -35 -5 -3 -1 -13 -2 -22 -1 -10 1 -18 -2
-18 -6 0 -5 -8 -9 -17 -10 -45 -3 -63 -8 -63 -16 0 -5 -7 -4 -15 3 -10 9 -15
9 -15 1 0 -6 -3 -10 -7 -9 -5 1 -21 -1 -38 -5 -16 -4 -45 -9 -64 -12 -19 -3
-37 -8 -41 -10 -4 -2 -22 -7 -41 -10 -19 -3 -45 -8 -59 -10 -14 -3 -36 -7 -50
-10 -14 -3 -38 -8 -55 -12 -16 -3 -37 -8 -45 -9 -28 -5 -45 -10 -55 -15 -5 -3
-20 -4 -32 -3 -13 0 -23 -2 -23 -5 0 -4 -8 -7 -17 -7 -10 -1 -31 -4 -48 -8
-16 -4 -39 -9 -50 -10 -11 -2 -21 -4 -23 -5 -2 0 141 -145 318 -321 176 -176
320 -323 320 -327 0 -4 -362 -369 -803 -810 -798 -796 -803 -801 -814 -773
-14 36 -65 63 -103 55 -15 -3 -45 -22 -67 -42 -71 -67 -640 -633 -636 -633 3
0 -5 -12 -16 -26 -25 -32 -21 -88 8 -117 21 -21 101 -33 101 -16 0 15 300 313
307 305 9 -9 104 85 97 96 -3 4 2 11 10 14 9 3 16 14 16 23 0 11 2 13 8 4 6
-9 18 -3 42 22 21 22 28 35 19 35 -12 0 -12 2 1 9 8 6 18 7 22 5 4 -3 8 2 8
11 0 23 36 59 51 49 9 -5 10 -2 6 10 -4 9 -3 15 2 11 6 -3 9 -14 8 -25 -1 -10
-4 -17 -7 -15 -3 1 -11 -3 -18 -11 -11 -12 -10 -14 5 -14 15 0 16 -2 3 -10
-13 -8 -13 -10 2 -10 22 0 32 -37 25 -96 -4 -40 -14 -54 -97 -140 -51 -52 -90
-98 -86 -101 3 -3 1 -14 -5 -24 -6 -13 -6 -19 1 -19 5 0 10 -6 10 -13 0 -24
34 -46 78 -52 l42 -5 427 425 c234 234 428 425 431 425 3 0 63 59 134 130 70
72 132 130 138 130 5 0 289 279 631 620 342 341 616 620 610 620 -7 0 -10 4
-6 10 3 5 13 6 22 3 11 -4 14 -2 11 8 -5 14 -48 15 -163 5 -27 -2 -90 -7 -140
-10 l-90 -7 -240 242 -240 241 85 -7 c47 -3 92 -7 100 -7 8 0 22 -2 30 -5 19
-6 81 -14 137 -16 24 -1 43 -6 43 -12 0 -5 4 -4 9 4 6 9 11 10 15 3 4 -6 13
-9 21 -5 8 3 15 1 15 -4 0 -10 180 -11 198 0 6 5 17 5 22 2 6 -3 10 -1 10 6 0
8 4 9 13 0 8 -6 18 -7 23 -2 10 9 116 33 130 30 5 -1 22 1 38 6 16 4 38 9 50
10 11 1 21 3 21 4 0 2 7 4 15 6 8 2 26 7 40 10 14 3 39 8 55 11 17 3 36 7 43
9 6 2 12 -1 12 -8 0 -9 2 -9 8 1 8 12 34 20 87 27 11 1 20 4 20 5 0 1 11 4 25
6 53 7 70 10 76 17 4 4 20 7 36 7 16 0 38 5 50 11 11 6 36 13 56 16 67 10 77
11 77 13 0 1 16 3 35 5 19 2 35 4 35 5 0 1 9 4 20 6 21 3 203 35 220 38 6 1
19 7 29 13 10 6 27 8 36 6 19 -5 33 -37 22 -48 -4 -3 -7 -21 -7 -38 -1 -18 -4
-37 -8 -43 -5 -10 -13 -42 -23 -99 -12 -74 -20 -113 -24 -125 -1 -3 -2 -13 -1
-22 1 -10 -1 -18 -6 -18 -4 0 -9 -17 -10 -37 -1 -20 -8 -40 -15 -44 -10 -6
-10 -9 -1 -9 9 0 10 -7 3 -25 -5 -14 -8 -25 -5 -25 2 0 -2 -18 -10 -40 -8 -22
-12 -40 -10 -40 2 0 -1 -15 -6 -32 -10 -34 -17 -70 -24 -123 -2 -16 -4 -30 -5
-30 -2 0 -6 -19 -13 -60 -3 -16 -10 -52 -17 -80 -6 -27 -14 -61 -16 -75 -2
-14 -7 -36 -10 -50 -7 -29 -12 -54 -18 -92 -2 -15 -7 -32 -11 -38 -4 -7 -9
-34 -10 -60 -1 -26 -5 -52 -9 -59 -4 -6 -8 -29 -9 -51 -1 -22 -5 -40 -10 -40
-6 0 -5 -5 0 -12 5 -7 11 -34 12 -59 2 -41 8 -84 11 -84 0 0 3 -32 5 -72 2
-40 6 -76 9 -82 3 -5 9 -33 12 -63 3 -29 9 -79 14 -111 15 -95 7 -96 -86 -5
-46 45 -84 87 -84 92 0 13 -118 135 -125 128 -8 -8 -165 150 -159 160 3 4 1 8
-3 8 -5 0 -10 11 -11 25 -1 14 2 25 7 25 9 0 5 55 -4 71 -4 5 -2 9 3 9 5 0 11
19 12 43 3 67 4 77 10 77 3 0 4 17 3 37 -1 21 -2 56 -2 77 -1 22 -4 36 -8 32
-5 -4 -8 -11 -9 -14 -2 -25 -18 -79 -26 -89 -6 -7 -8 -13 -5 -13 4 0 -2 -20
-13 -45 -11 -25 -19 -47 -19 -50 0 -16 -25 -85 -31 -85 -5 0 -10 -11 -14 -24
-3 -13 -283 -299 -636 -652 -347 -346 -637 -642 -645 -658 -8 -16 -12 -40 -9
-55 8 -35 57 -78 86 -75 13 1 27 3 31 3 5 1 274 266 599 591 l591 589 325
-325 c217 -216 329 -321 336 -314 5 5 11 24 12 42 1 18 3 34 4 36 3 2 3 1 15
57 4 22 10 47 12 55 1 8 5 31 8 50 9 58 10 65 19 78 4 7 5 16 2 19 -3 3 -1 13
4 22 4 9 11 37 15 61 4 24 13 61 20 82 8 25 9 40 3 44 -7 4 -6 9 0 13 6 4 14
22 17 40 3 19 8 38 11 43 3 4 -1 8 -8 8 -11 0 -11 2 0 9 7 4 12 12 11 17 -1 5
0 11 1 14 1 3 4 18 6 35 3 16 10 33 16 36 7 4 6 8 -2 11 -10 3 -10 9 -1 26 6
12 13 34 15 49 3 15 7 38 9 49 3 12 8 37 11 56 3 20 10 47 15 61 5 14 7 28 4
31 -3 3 2 17 11 31 10 16 12 25 5 25 -8 0 -8 4 1 15 7 9 10 18 7 22 -4 3 -2
12 4 20 9 10 8 13 -1 13 -9 0 -9 4 -2 13 9 11 23 61 27 97 1 8 4 24 8 35 3 11
9 34 12 50 3 17 8 41 11 55 2 14 7 32 10 40 3 8 8 32 10 53 3 21 9 48 13 60 5
12 7 31 5 41 -1 11 0 25 4 30 3 6 8 20 9 30 2 11 8 25 14 32 7 8 6 13 -3 16
-10 4 -11 8 -1 20 7 8 14 28 15 44 1 16 5 34 8 39 4 6 8 17 8 25 1 31 12 88
21 113 5 14 7 28 4 31 -3 3 0 12 6 20 7 8 10 20 6 26 -4 6 -1 17 5 25 7 8 10
22 6 31 -3 8 -2 23 3 32 8 16 16 50 26 109 2 12 11 52 20 88 9 36 18 77 20 93
2 15 7 38 10 52 4 14 8 34 10 45 2 11 4 20 6 20 1 0 2 14 3 30 1 17 5 35 8 40
3 6 9 26 12 45 3 19 8 46 11 60 18 88 17 98 -9 98 -14 0 -26 -2 -28 -3z"/>
<path d="M3633 3546 c-238 -237 -449 -447 -470 -467 -80 -77 -193 -197 -193
-204 0 -4 23 13 50 39 28 26 55 44 60 41 6 -4 13 1 16 9 9 23 24 9 17 -17 -3
-12 -6 -35 -7 -52 -2 -16 -4 -37 -4 -46 -2 -19 -28 -49 -62 -72 -14 -10 -25
-21 -25 -26 0 -4 -51 -58 -113 -120 l-112 -112 17 -24 c22 -29 49 -37 63 -20
6 8 19 11 27 8 12 -5 14 -3 8 6 -7 13 87 112 131 137 10 6 19 16 19 21 0 13
149 163 162 163 5 0 22 14 38 30 16 17 25 30 21 30 -4 0 114 122 263 270 149
149 274 270 278 270 8 0 221 208 256 250 10 12 21 48 26 85 6 55 12 68 44 99
62 60 44 128 -35 131 l-43 2 -432 -431z"/>
<path d="M3562 3858 c-28 -28 -3 -71 36 -65 26 4 35 12 38 34 5 35 -48 57 -74
31z"/>
<path d="M3420 3770 c-17 -11 -320 -311 -320 -317 0 -3 -167 -172 -370 -375
-204 -203 -368 -373 -365 -378 4 -6 2 -10 -4 -10 -8 0 -9 -49 -1 -57 1 -2 3
-7 4 -13 0 -5 3 -9 6 -8 3 1 15 -4 27 -11 20 -10 28 -8 55 11 56 40 1080 1066
1070 1072 -6 3 -8 14 -5 24 8 34 -65 82 -97 62z"/>
<path d="M2580 3489 c0 -5 5 -7 10 -4 6 3 10 8 10 11 0 2 -4 4 -10 4 -5 0 -10
-5 -10 -11z"/>
<path d="M3795 3130 c-22 -10 -60 -39 -85 -64 -29 -31 -50 -44 -61 -41 -10 3
-20 1 -24 -5 -3 -6 -10 -8 -15 -5 -9 6 -120 -100 -120 -115 0 -6 -38 -48 -85
-94 -46 -46 -81 -86 -78 -90 3 -3 1 -6 -6 -6 -7 0 -38 -27 -69 -59 -157 -163
-161 -170 -123 -191 18 -9 46 16 233 202 117 117 216 212 220 211 5 -2 8 1 8
5 0 4 18 8 40 9 27 1 38 -3 33 -10 -4 -7 -8 -26 -8 -43 -1 -17 -5 -36 -9 -42
-4 -7 -2 -12 6 -12 9 0 9 -3 -2 -10 -8 -5 -11 -10 -7 -10 5 0 -145 -153 -332
-340 -188 -187 -342 -348 -342 -358 -2 -31 3 -57 14 -70 15 -18 70 -41 82 -33
6 3 16 6 22 6 7 0 153 139 323 310 375 373 397 396 397 415 0 8 4 44 7 80 11
100 12 118 14 145 1 14 19 41 41 62 52 50 66 85 47 122 -13 24 -53 52 -74 51
-4 -1 -25 -9 -47 -20z"/>
<path d="M2295 2959 c-11 -4 -16 -8 -11 -8 5 -1 -19 -27 -52 -59 l-62 -59 31
-31 30 -31 66 67 c70 71 81 93 56 113 -19 16 -33 18 -58 8z"/>
<path d="M2855 2284 c-16 -19 -40 -40 -52 -47 l-23 -13 29 -32 c17 -17 34 -32
38 -32 20 1 93 80 93 101 0 19 -34 60 -49 59 -3 -1 -19 -17 -36 -36z"/>
</g>
</svg>
